<?xml version="1.0" encoding="UTF-8" standalone="no"?>
<svg
   width="498.40756pt"
   height="487.18402pt"
   version="1.1"
   viewBox="0 0 498.40756 487.18402"
   id="svg2507"
   sodipodi:docname="d100.svg"
   inkscape:version="1.1 (c68e22c387, 2021-05-23)"
   xmlns:inkscape="http://www.inkscape.org/namespaces/inkscape"
   xmlns:sodipodi="http://sodipodi.sourceforge.net/DTD/sodipodi-0.dtd"
   xmlns:xlink="http://www.w3.org/1999/xlink"
   xmlns="http://www.w3.org/2000/svg"
   xmlns:svg="http://www.w3.org/2000/svg">
  <sodipodi:namedview
     id="namedview2509"
     pagecolor="#505050"
     bordercolor="#eeeeee"
     borderopacity="1"
     inkscape:pageshadow="0"
     inkscape:pageopacity="0"
     inkscape:pagecheckerboard="0"
     inkscape:document-units="pt"
     showgrid="false"
     fit-margin-top="0"
     fit-margin-left="0"
     fit-margin-right="0"
     fit-margin-bottom="0"
     inkscape:zoom="0.65306362"
     inkscape:cx="92.640285"
     inkscape:cy="253.42094"
     inkscape:window-width="1920"
     inkscape:window-height="1051"
     inkscape:window-x="-9"
     inkscape:window-y="-9"
     inkscape:window-maximized="1"
     inkscape:current-layer="svg2507" />
  <defs
     id="defs2419">
    <symbol
       id="w"
       overflow="visible">
      <path
         d="m 18.766,-1.125 c -0.96875,0.5 -1.9805,0.875 -3.0312,1.125 -1.043,0.25781 -2.1367,0.39062 -3.2812,0.39062 -3.3984,0 -6.0898,-0.94531 -8.0781,-2.8438 -1.9922,-1.9062 -2.9844,-4.4844 -2.9844,-7.7344 0,-3.2578 0.99219,-5.8359 2.9844,-7.7344 1.9883,-1.9062 4.6797,-2.8594 8.0781,-2.8594 1.1445,0 2.2383,0.13281 3.2812,0.39062 1.0508,0.25 2.0625,0.625 3.0312,1.125 v 4.2188 c -0.98047,-0.65625 -1.9453,-1.1406 -2.8906,-1.4531 -0.94922,-0.3125 -1.9492,-0.46875 -3,-0.46875 -1.875,0 -3.3516,0.60547 -4.4219,1.8125 -1.0742,1.1992 -1.6094,2.8555 -1.6094,4.9688 0,2.1055 0.53516,3.7617 1.6094,4.9688 1.0703,1.1992 2.5469,1.7969 4.4219,1.7969 1.0508,0 2.0508,-0.14844 3,-0.45312 0.94531,-0.3125 1.9102,-0.80078 2.8906,-1.4688 z"
         id="path2350" />
    </symbol>
    <symbol
       id="d"
       overflow="visible">
      <path
         d="m 13.734,-11.141 c -0.4375,-0.19531 -0.87109,-0.34375 -1.2969,-0.4375 -0.41797,-0.10156 -0.83984,-0.15625 -1.2656,-0.15625 -1.2617,0 -2.2305,0.40625 -2.9062,1.2188 -0.67969,0.80469 -1.0156,1.9531 -1.0156,3.4531 v 7.0625 H 2.3591 v -15.312 h 4.8906 v 2.5156 c 0.625,-1 1.3438,-1.7266 2.1562,-2.1875 0.82031,-0.46875 1.8008,-0.70312 2.9375,-0.70312 0.16406,0 0.34375,0.01172 0.53125,0.03125 0.19531,0.01172 0.47656,0.03906 0.84375,0.07813 z"
         id="path2353" />
    </symbol>
    <symbol
       id="b"
       overflow="visible">
      <path
         d="m 17.641,-7.7031 v 1.4062 H 6.188 c 0.125,1.1484 0.53906,2.0078 1.25,2.5781 0.70703,0.57422 1.7031,0.85938 2.9844,0.85938 1.0312,0 2.082,-0.14844 3.1562,-0.45312 1.082,-0.3125 2.1914,-0.77344 3.3281,-1.3906 v 3.7656 c -1.1562,0.4375 -2.3125,0.76562 -3.4688,0.98438 -1.1562,0.22656 -2.3125,0.34375 -3.4688,0.34375 -2.7734,0 -4.9297,-0.70312 -6.4688,-2.1094 -1.5312,-1.4062 -2.2969,-3.3789 -2.2969,-5.9219 0,-2.5 0.75391,-4.4609 2.2656,-5.8906 1.5078,-1.4375 3.582,-2.1562 6.2188,-2.1562 2.4062,0 4.332,0.73047 5.7812,2.1875 1.4453,1.4492 2.1719,3.3828 2.1719,5.7969 z m -5.0312,-1.625 c 0,-0.92578 -0.27344,-1.6719 -0.8125,-2.2344 -0.54297,-0.57031 -1.25,-0.85938 -2.125,-0.85938 -0.94922,0 -1.7188,0.26562 -2.3125,0.79688 -0.5937,0.53126 -0.96484,1.2969 -1.1094,2.2969 z"
         id="path2356" />
    </symbol>
    <symbol
       id="f"
       overflow="visible">
      <path
         d="m 9.2188,-6.8906 c -1.0234,0 -1.793,0.17188 -2.3125,0.51562 -0.51172,0.34375 -0.76562,0.85547 -0.76562,1.5312 0,0.625 0.20703,1.1172 0.625,1.4688 0.41406,0.34375 0.98828,0.51562 1.7188,0.51562 0.92578,0 1.7031,-0.32812 2.3281,-0.98438 0.63281,-0.66406 0.95312,-1.4922 0.95312,-2.4844 v -0.5625 z m 7.4688,-1.8438 V 0 h -4.9219 v -2.2656 c -0.65625,0.92969 -1.3984,1.6055 -2.2188,2.0312 -0.82422,0.41406 -1.8242,0.625 -3,0.625 -1.5859,0 -2.8711,-0.45703 -3.8594,-1.375 -0.99219,-0.92578 -1.4844,-2.1289 -1.4844,-3.6094 0,-1.7891 0.61328,-3.1016 1.8438,-3.9375 1.2383,-0.84375 3.1797,-1.2656 5.8281,-1.2656 h 2.8906 v -0.39062 c 0,-0.76953 -0.30859,-1.332 -0.92188,-1.6875 -0.61719,-0.36328 -1.5703,-0.54688 -2.8594,-0.54688 -1.0547,0 -2.0312,0.10547 -2.9375,0.3125 -0.89844,0.21094 -1.7305,0.52344 -2.5,0.9375 v -3.7344 c 1.0391,-0.25 2.0859,-0.44141 3.1406,-0.57812 1.0625,-0.13281 2.125,-0.20312 3.1875,-0.20312 2.7578,0 4.75,0.54688 5.9688,1.6406 1.2266,1.0859 1.8438,2.8555 1.8438,5.3125 z"
         id="path2359" />
    </symbol>
    <symbol
       id="a"
       overflow="visible">
      <path
         d="m 7.7031,-19.656 v 4.3438 H 12.75 v 3.5 H 7.7031 v 6.5 c 0,0.71094 0.14062,1.1875 0.42188,1.4375 0.28126,0.25 0.83594,0.375 1.6719,0.375 h 2.5156 v 3.5 h -4.1875 c -1.9375,0 -3.3125,-0.39844 -4.125,-1.2031 -0.80469,-0.8125 -1.2031,-2.1797 -1.2031,-4.1094 v -6.5 h -2.4219 v -3.5 h 2.4219 v -4.3438 z"
         id="path2362" />
    </symbol>
    <symbol
       id="k"
       overflow="visible">
      <path
         d="m 12.766,-13.078 v -8.2031 h 4.9219 V -10e-5 H 12.766 v -2.2188 c -0.66797,0.90625 -1.4062,1.5703 -2.2188,1.9844 -0.8126,0.4141 -1.7578,0.625 -2.8281,0.625 -1.8867,0 -3.4336,-0.75 -4.6406,-2.25 -1.2109,-1.5 -1.8125,-3.4258 -1.8125,-5.7812 0,-2.3633 0.60156,-4.2969 1.8125,-5.7969 1.207,-1.5 2.7539,-2.25 4.6406,-2.25 1.0625,0 2,0.21484 2.8125,0.64062 0.82031,0.42969 1.5664,1.0859 2.2344,1.9688 z m -3.2188,9.9219 c 1.0391,0 1.8359,-0.37891 2.3906,-1.1406 0.55078,-0.76953 0.82812,-1.8828 0.82812,-3.3438 0,-1.457 -0.27734,-2.5664 -0.82812,-3.3281 -0.55469,-0.76953 -1.3516,-1.1562 -2.3906,-1.1562 -1.043,0 -1.8398,0.38672 -2.3906,1.1562 -0.55469,0.76172 -0.82812,1.8711 -0.82812,3.3281 0,1.4609 0.27344,2.5742 0.82812,3.3438 0.55078,0.76172 1.3477,1.1406 2.3906,1.1406 z"
         id="path2365" />
    </symbol>
    <symbol
       id="j"
       overflow="visible">
      <path
         d="m 10.5,-3.1562 c 1.0508,0 1.8516,-0.37891 2.4062,-1.1406 0.55078,-0.76953 0.82812,-1.8828 0.82812,-3.3438 0,-1.457 -0.27734,-2.5664 -0.82812,-3.3281 -0.55469,-0.76953 -1.3555,-1.1562 -2.4062,-1.1562 -1.0547,0 -1.8594,0.38672 -2.4219,1.1562 -0.55469,0.77344 -0.82812,1.8828 -0.82812,3.3281 0,1.4492 0.27344,2.5586 0.82812,3.3281 0.5625,0.77344 1.3672,1.1562 2.4219,1.1562 z m -3.25,-9.9219 c 0.67578,-0.88281 1.4219,-1.5391 2.2344,-1.9688 0.82031,-0.42578 1.7656,-0.64062 2.8281,-0.64062 1.8945,0 3.4453,0.75 4.6562,2.25 1.207,1.5 1.8125,3.4336 1.8125,5.7969 0,2.3555 -0.60547,4.2812 -1.8125,5.7812 -1.2109,1.5 -2.7617,2.25 -4.6562,2.25 -1.0625,0 -2.0078,-0.21094 -2.8281,-0.625 C 8.6719,-0.6602 7.9258,-1.32032 7.25,-2.21882 V -2e-5 H 2.3594 v -21.281 H 7.25 Z"
         id="path2368" />
    </symbol>
    <symbol
       id="i"
       overflow="visible">
      <path
         d="m 0.34375,-15.312 h 4.8906 l 4.125,10.391 3.5,-10.391 h 4.8906 l -6.4375,16.766 c -0.64844,1.6953 -1.4023,2.8828 -2.2656,3.5625 -0.86719,0.6875 -2,1.0312 -3.4062,1.0312 H 2.79685 V 2.8289 h 1.5312 c 0.83203,0 1.4375,-0.13672 1.8125,-0.40625 C 6.52336,2.16093 6.82024,1.69218 7.03117,1.01645 L 7.17179,0.59457 Z"
         id="path2371" />
    </symbol>
    <symbol
       id="h"
       overflow="visible">
      <path
         d="m 2.5781,-20.406 h 5.25 v 16.422 h 9.25 V 4e-4 h -14.5 z"
         id="path2374" />
    </symbol>
    <symbol
       id="c"
       overflow="visible">
      <path
         d="m 9.6406,-12.188 c -1.0859,0 -1.9141,0.39062 -2.4844,1.1719 -0.57422,0.78125 -0.85938,1.9062 -0.85938,3.375 0,1.4688 0.28516,2.5938 0.85938,3.375 0.57031,0.77344 1.3984,1.1562 2.4844,1.1562 1.0625,0 1.875,-0.38281 2.4375,-1.1562 0.57031,-0.78125 0.85938,-1.9062 0.85938,-3.375 0,-1.4688 -0.28906,-2.5938 -0.85938,-3.375 -0.5625,-0.78125 -1.375,-1.1719 -2.4375,-1.1719 z m 0,-3.5 c 2.6328,0 4.6914,0.71484 6.1719,2.1406 1.4766,1.418 2.2188,3.3867 2.2188,5.9062 0,2.5117 -0.74219,4.4805 -2.2188,5.9062 C 14.332,-0.317 12.2734,0.39 9.6406,0.39 6.9922,0.39 4.9258,-0.31703 3.4375,-1.735 1.9453,-3.1608 1.2031,-5.1295 1.2031,-7.6412 c 0,-2.5195 0.74219,-4.4883 2.2344,-5.9062 1.4883,-1.4258 3.5547,-2.1406 6.2031,-2.1406 z"
         id="path2377" />
    </symbol>
    <symbol
       id="e"
       overflow="visible">
      <path
         d="M 17.75,-9.3281 V 0 h -4.9219 v -7.1406 c 0,-1.3203 -0.03125,-2.2344 -0.09375,-2.7344 -0.0625,-0.5 -0.16797,-0.86719 -0.3125,-1.1094 -0.1875,-0.3125 -0.44922,-0.55469 -0.78125,-0.73438 -0.32422,-0.17578 -0.69531,-0.26562 -1.1094,-0.26562 -1.0234,0 -1.8242,0.39844 -2.4062,1.1875 -0.58594,0.78125 -0.875,1.8711 -0.875,3.2656 V -1e-4 H 2.3594 v -15.312 H 7.25 v 2.2344 c 0.73828,-0.88281 1.5195,-1.5391 2.3438,-1.9688 0.83203,-0.42578 1.75,-0.64062 2.75,-0.64062 1.7695,0 3.1133,0.54688 4.0312,1.6406 0.91406,1.0859 1.375,2.6562 1.375,4.7188 z"
         id="path2380" />
    </symbol>
    <symbol
       id="v"
       overflow="visible">
      <path
         d="M 2.3594,-15.312 H 7.25 V 0 H 2.3594 Z m 0,-5.9688 H 7.25 v 4 H 2.3594 Z"
         id="path2383" />
    </symbol>
    <symbol
       id="u"
       overflow="visible">
      <path
         d="m 0.14062,-20.406 h 18.812 v 3.9688 h -6.7656 V 8e-4 h -5.2656 v -16.438 h -6.7812 z"
         id="path2386" />
    </symbol>
    <symbol
       id="t"
       overflow="visible">
      <path
         d="M 7.25,-2.2188 V 5.8281 H 2.3594 v -21.141 H 7.25 v 2.2344 c 0.67578,-0.88281 1.4219,-1.5391 2.2344,-1.9688 0.82031,-0.42578 1.7656,-0.64062 2.8281,-0.64062 1.8945,0 3.4453,0.75 4.6562,2.25 1.207,1.5 1.8125,3.4336 1.8125,5.7969 0,2.3555 -0.60547,4.2812 -1.8125,5.7812 -1.2109,1.5 -2.7617,2.25 -4.6562,2.25 -1.0625,0 -2.0078,-0.21094 -2.8281,-0.625 C 8.6719,-0.6606 7.9258,-1.32072 7.25,-2.21922 Z m 3.25,-9.9062 c -1.0547,0 -1.8594,0.38672 -2.4219,1.1562 -0.55469,0.77344 -0.82812,1.8828 -0.82812,3.3281 0,1.4492 0.27344,2.5586 0.82812,3.3281 0.5625,0.77344 1.3672,1.1562 2.4219,1.1562 1.0508,0 1.8516,-0.37891 2.4062,-1.1406 0.55078,-0.76953 0.82812,-1.8828 0.82812,-3.3438 0,-1.457 -0.27734,-2.5664 -0.82812,-3.3281 -0.55469,-0.76953 -1.3555,-1.1562 -2.4062,-1.1562 z"
         id="path2389" />
    </symbol>
    <symbol
       id="s"
       overflow="visible">
      <path
         d="m 14.312,-14.828 v 3.7188 c -1.043,-0.4375 -2.0547,-0.76562 -3.0312,-0.98438 -0.98047,-0.21875 -1.9023,-0.32812 -2.7656,-0.32812 -0.92969,0 -1.6211,0.11719 -2.0781,0.34375 -0.44922,0.23047 -0.67188,0.58984 -0.67188,1.0781 0,0.38672 0.17188,0.68359 0.51562,0.89062 0.34375,0.21094 0.95703,0.36719 1.8438,0.46875 l 0.85938,0.125 c 2.5078,0.32422 4.1953,0.85156 5.0625,1.5781 0.86328,0.73047 1.2969,1.8711 1.2969,3.4219 0,1.6367 -0.60547,2.8672 -1.8125,3.6875 -1.1992,0.8125 -2.9922,1.2188 -5.375,1.2188 -1.0234,0 -2.0742,-0.078125 -3.1562,-0.23438 -1.0742,-0.15625 -2.1797,-0.39453 -3.3125,-0.71875 v -3.7188 c 0.96875,0.48047 1.9609,0.83984 2.9844,1.0781 1.0312,0.23047 2.0781,0.34375 3.1406,0.34375 0.95703,0 1.6758,-0.12891 2.1562,-0.39062 0.47656,-0.26953 0.71875,-0.66406 0.71875,-1.1875 0,-0.4375 -0.16797,-0.75781 -0.5,-0.96875 -0.33594,-0.21875 -0.99609,-0.38281 -1.9844,-0.5 L 7.34339,-6.01551 c -2.1797,-0.26953 -3.7031,-0.77344 -4.5781,-1.5156 -0.875,-0.73828 -1.3125,-1.8594 -1.3125,-3.3594 0,-1.625 0.55078,-2.8281 1.6562,-3.6094 1.1133,-0.78906 2.8203,-1.1875 5.125,-1.1875 0.89453,0 1.8359,0.07422 2.8281,0.21875 1,0.13672 2.082,0.35156 3.25,0.64062 z"
         id="path2392" />
    </symbol>
    <symbol
       id="g"
       overflow="visible">
      <path
         d="m 14.719,-14.828 v 3.9844 c -0.65625,-0.45703 -1.3242,-0.79688 -2,-1.0156 -0.66797,-0.21875 -1.3594,-0.32812 -2.0781,-0.32812 -1.3672,0 -2.4336,0.40234 -3.2031,1.2031 -0.76172,0.79297 -1.1406,1.9062 -1.1406,3.3438 0,1.4297 0.37891,2.543 1.1406,3.3438 0.76953,0.79297 1.8359,1.1875 3.2031,1.1875 0.75781,0 1.4844,-0.10938 2.1719,-0.32812 0.6875,-0.22656 1.3203,-0.56641 1.9062,-1.0156 v 4 c -0.76172,0.28125 -1.5391,0.48828 -2.3281,0.625 -0.78125,0.14453 -1.5742,0.21875 -2.375,0.21875 -2.7617,0 -4.9219,-0.70703 -6.4844,-2.125 -1.5547,-1.4141 -2.3281,-3.3828 -2.3281,-5.9062 0,-2.5312 0.77344,-4.5039 2.3281,-5.9219 1.5625,-1.4141 3.7227,-2.125 6.4844,-2.125 0.80078,0 1.5938,0.07422 2.375,0.21875 0.78125,0.13672 1.5547,0.35156 2.3281,0.64062 z"
         id="path2395" />
    </symbol>
    <symbol
       id="r"
       overflow="visible">
      <path
         d="m 12.422,-21.281 v 3.2188 H 9.7189 c -0.6875,0 -1.1719,0.125 -1.4531,0.375 -0.27344,0.25 -0.40625,0.6875 -0.40625,1.3125 v 1.0625 h 4.1875 v 3.5 H 7.85955 V -2e-4 h -4.8906 v -11.812 h -2.4375 v -3.5 h 2.4375 v -1.0625 c 0,-1.6641 0.46094,-2.8984 1.3906,-3.7031 0.92578,-0.80078 2.3672,-1.2031 4.3281,-1.2031 z"
         id="path2398" />
    </symbol>
    <symbol
       id="q"
       overflow="visible">
      <path
         d="m 16.547,-12.766 c 0.61328,-0.94531 1.3477,-1.6719 2.2031,-2.1719 0.85156,-0.5 1.7891,-0.75 2.8125,-0.75 1.7578,0 3.0977,0.54688 4.0156,1.6406 0.92578,1.0859 1.3906,2.6562 1.3906,4.7188 V -4e-4 h -4.9219 v -7.9844 -0.35938 c 0.0078,-0.13281 0.01563,-0.32031 0.01563,-0.5625 0,-1.082 -0.16406,-1.8633 -0.48438,-2.3438 -0.3125,-0.48828 -0.82422,-0.73438 -1.5312,-0.73438 -0.92969,0 -1.6484,0.38672 -2.1562,1.1562 -0.51172,0.76172 -0.77344,1.8672 -0.78125,3.3125 v 7.5156 h -4.9219 v -7.9844 c 0,-1.6953 -0.14844,-2.7852 -0.4375,-3.2656 -0.29297,-0.48828 -0.8125,-0.73438 -1.5625,-0.73438 -0.9375,0 -1.6641,0.38672 -2.1719,1.1562 -0.51172,0.76172 -0.76562,1.8594 -0.76562,3.2969 v 7.5312 h -4.9219 v -15.312 h 4.9219 v 2.2344 c 0.60156,-0.86328 1.2891,-1.5156 2.0625,-1.9531 0.78125,-0.4375 1.6406,-0.65625 2.5781,-0.65625 1.0625,0 2,0.25781 2.8125,0.76562 0.8125,0.51172 1.4258,1.2305 1.8438,2.1562 z"
         id="path2401" />
    </symbol>
    <symbol
       id="p"
       overflow="visible">
      <path
         d="M 17.75,-9.3281 V 0 h -4.9219 v -7.1094 c 0,-1.3438 -0.03125,-2.2656 -0.09375,-2.7656 -0.0625,-0.5 -0.16797,-0.86719 -0.3125,-1.1094 -0.1875,-0.3125 -0.44922,-0.55469 -0.78125,-0.73438 -0.32422,-0.17578 -0.69531,-0.26562 -1.1094,-0.26562 -1.0234,0 -1.8242,0.39844 -2.4062,1.1875 -0.58594,0.78125 -0.875,1.8711 -0.875,3.2656 V -1e-4 H 2.3594 v -21.281 H 7.25 v 8.2031 c 0.73828,-0.88281 1.5195,-1.5391 2.3438,-1.9688 0.83203,-0.42578 1.75,-0.64062 2.75,-0.64062 1.7695,0 3.1133,0.54688 4.0312,1.6406 0.91406,1.0859 1.375,2.6562 1.375,4.7188 z"
         id="path2404" />
    </symbol>
    <symbol
       id="o"
       overflow="visible">
      <path
         d="m 2.5781,-20.406 h 5.875 l 7.4219,14 v -14 h 4.9844 V 0 h -5.875 L 7.5625,-14 V 0 H 2.5781 Z"
         id="path2407" />
    </symbol>
    <symbol
       id="n"
       overflow="visible">
      <path
         d="m 2.1875,-5.9688 v -9.3438 h 4.9219 v 1.5312 c 0,0.83594 -0.00781,1.875 -0.015625,3.125 -0.011719,1.25 -0.015625,2.0859 -0.015625,2.5 0,1.2422 0.03125,2.1328 0.09375,2.6719 0.070313,0.54297 0.17969,0.93359 0.32812,1.1719 0.20703,0.32422 0.47266,0.57422 0.79688,0.75 0.32031,0.16797 0.69141,0.25 1.1094,0.25 1.0195,0 1.8203,-0.39062 2.4062,-1.1719 0.58203,-0.78125 0.875,-1.8672 0.875,-3.2656 v -7.5625 h 4.8906 V -6e-4 H 12.6875 V -2.2194 C 11.94531,-1.32096 11.1641,-0.6608 10.3437,-0.235 9.51948,0.17906 8.6093,0.39 7.6093,0.39 5.8476,0.39 4.5038,-0.14906 3.5781,-1.235 2.64841,-2.317 2.1875,-3.8952 2.1875,-5.9694 Z"
         id="path2410" />
    </symbol>
    <symbol
       id="m"
       overflow="visible">
      <path
         d="m 2.5781,-20.406 h 8.7344 c 2.5938,0 4.582,0.57812 5.9688,1.7344 1.3945,1.1484 2.0938,2.7891 2.0938,4.9219 0,2.1367 -0.69922,3.7812 -2.0938,4.9375 -1.3867,1.1562 -3.375,1.7344 -5.9688,1.7344 H 7.8281 V 3e-4 h -5.25 z m 5.25,3.8125 v 5.7031 H 10.75 c 1.0195,0 1.8047,-0.25 2.3594,-0.75 0.5625,-0.5 0.84375,-1.2031 0.84375,-2.1094 0,-0.91406 -0.28125,-1.6172 -0.84375,-2.1094 -0.55469,-0.48828 -1.3398,-0.73438 -2.3594,-0.73438 z"
         id="path2413" />
    </symbol>
    <symbol
       id="l"
       overflow="visible">
      <path
         d="M 2.3594,-15.312 H 7.25 v 15.031 c 0,2.0508 -0.49609,3.6172 -1.4844,4.7031 -0.98047,1.082 -2.4062,1.625 -4.2812,1.625 H -0.9375 V 2.8283 h 0.85938 c 0.92578,0 1.5625,-0.21094 1.9062,-0.625 0.35156,-0.41797 0.53125,-1.2461 0.53125,-2.4844 z m 0,-5.9688 H 7.25 v 4 H 2.3594 Z"
         id="path2416" />
    </symbol>
  </defs>
  <path
     d="m 207.66711,175.66634 -3.52608,-9.47296 h -0.003 c 3.29915,-1.30206 6.50545,-2.83092 9.60259,-4.57821 2.52565,-1.41969 4.57296,-3.58696 5.87673,-6.2219 0.78175,-1.8285 1.0797,-3.83621 0.86103,-5.81869 -0.0574,-0.95761 -0.24053,-1.90405 -0.54667,-2.81135 l 12.10907,-4.41584 34.28745,74.58659 -17.28297,6.90512 -23.15733,-55.11522 z m 79.66585,-44.15841 c 8.67333,5.85789 15.8807,13.72379 21.04131,22.96378 7.28713,11.76038 11.12733,22.03691 11.2071,30.54932 0.0793,8.50954 -5.13325,15.4148 -15.67287,19.58964 v -0.003 c -9.15125,4.3542 -19.86923,3.42174 -28.17589,-2.44734 -8.99801,-7.26942 -16.10531,-16.70009 -20.68863,-27.45833 -5.64169,-12.04353 -7.83644,-21.35664 -6.93461,-28.70132 0.90204,-7.34469 5.99429,-12.3231 15.16486,-15.69508 l -0.003,-0.003 c 7.77345,-3.41894 16.65181,-2.97651 24.06209,1.20407 z m -3.91968,56.19836 v 0.003 c 1.56624,1.9629 3.69829,3.36575 6.08994,4.01541 2.39173,0.64963 4.92284,0.50683 7.23255,-0.40322 2.17033,-0.59362 3.98799,-2.10849 4.99114,-4.16659 1.00588,-2.05811 1.09881,-4.45785 0.25967,-6.59151 -2.05277,-7.17407 -5.08679,-14.01196 -9.01201,-20.31221 -3.35114,-6.3647 -7.56073,-12.217 -12.49952,-17.38323 -1.49242,-1.57087 -3.40853,-2.64891 -5.50503,-3.09134 -2.0965,-0.44243 -4.27229,-0.23242 -6.25123,0.60482 -3.88414,0.93805 -6.34689,4.861 -5.56514,8.87083 1.47331,6.82949 3.9989,13.37325 7.48656,19.38821 3.3347,6.92755 7.59363,13.34243 12.65557,19.06922 z m 213.38645,-3.07029 -33.602,-56 h 0.004 c -1.1953,-2.0391 -3.0234,-3.6328 -5.2109,-4.5352 l -291.2,-123.199996 c -5.3906,-2.3008 -11.641,-0.05469 -14.336,5.1484 L 1.25483,297.2492 v 0.004 c -1.9219,3.707 -1.6172,8.1758 0.78516,11.59 l 39.199,56 c 1.25,1.7617 2.9805,3.1211 4.9844,3.9219 l 291.2,117.6 v -0.004 c 5.375,2.1797 11.52,-0.10547 14.168,-5.2617 l 145.6,-285.6 c 1.75,-3.4453 1.6055,-7.5508 -0.39453,-10.863 z m -306.88,39.984 -20.328,-198.239996 271.66,114.799996 -79.746,104.72 z m -165.65,76.777 135.52,-261.069996 19.434,186.929996 -102.03,96.43 -52.695,-21.953 z m 33.602,47.711 -21.395,-30.074 39.199,16.352 142.07,78.398 z m 279.83,109.93 -1.3984,2.7422 -32.594,-13.16 -215.82,-119.55 98.84,-93.746 171.14,21.391 z m 14,-27.496 17.918,-177.57 79.801,-104.95 24.977,41.664 z"
     id="path2421"
     sodipodi:nodetypes="ccccccccccccccccccccccccccscccccscccccccccccccccccccccccccccccccccccccccccccccccccc" />
  <use
     x="70"
     y="644"
     xlink:href="#w"
     id="use2423"
     width="100%"
     height="100%"
     transform="translate(-103.57867,-39.362996)" />
  <use
     x="90.550781"
     y="644"
     xlink:href="#d"
     id="use2425"
     width="100%"
     height="100%"
     transform="translate(-103.57867,-39.362996)" />
  <use
     x="104.35938"
     y="644"
     xlink:href="#b"
     id="use2427"
     width="100%"
     height="100%"
     transform="translate(-103.57867,-39.362996)" />
  <use
     x="123.34766"
     y="644"
     xlink:href="#f"
     id="use2429"
     width="100%"
     height="100%"
     transform="translate(-103.57867,-39.362996)" />
  <use
     x="142.24219"
     y="644"
     xlink:href="#a"
     id="use2431"
     width="100%"
     height="100%"
     transform="translate(-103.57867,-39.362996)" />
  <use
     x="155.62891"
     y="644"
     xlink:href="#b"
     id="use2433"
     width="100%"
     height="100%"
     transform="translate(-103.57867,-39.362996)" />
  <use
     x="174.61719"
     y="644"
     xlink:href="#k"
     id="use2435"
     width="100%"
     height="100%"
     transform="translate(-103.57867,-39.362996)" />
  <use
     x="204.41016"
     y="644"
     xlink:href="#j"
     id="use2437"
     width="100%"
     height="100%"
     transform="translate(-103.57867,-39.362996)" />
  <use
     x="224.45312"
     y="644"
     xlink:href="#i"
     id="use2439"
     width="100%"
     height="100%"
     transform="translate(-103.57867,-39.362996)" />
  <use
     x="252.45312"
     y="644"
     xlink:href="#h"
     id="use2441"
     width="100%"
     height="100%"
     transform="translate(-103.57867,-39.362996)" />
  <use
     x="270.29297"
     y="644"
     xlink:href="#c"
     id="use2443"
     width="100%"
     height="100%"
     transform="translate(-103.57867,-39.362996)" />
  <use
     x="289.53125"
     y="644"
     xlink:href="#e"
     id="use2445"
     width="100%"
     height="100%"
     transform="translate(-103.57867,-39.362996)" />
  <use
     x="309.46094"
     y="644"
     xlink:href="#e"
     id="use2447"
     width="100%"
     height="100%"
     transform="translate(-103.57867,-39.362996)" />
  <use
     x="329.39844"
     y="644"
     xlink:href="#v"
     id="use2449"
     width="100%"
     height="100%"
     transform="translate(-103.57867,-39.362996)" />
  <use
     x="338.99219"
     y="644"
     xlink:href="#b"
     id="use2451"
     width="100%"
     height="100%"
     transform="translate(-103.57867,-39.362996)" />
  <use
     x="367.73438"
     y="644"
     xlink:href="#u"
     id="use2453"
     width="100%"
     height="100%"
     transform="translate(-103.57867,-39.362996)" />
  <use
     x="386.83203"
     y="644"
     xlink:href="#f"
     id="use2455"
     width="100%"
     height="100%"
     transform="translate(-103.57867,-39.362996)" />
  <use
     x="405.72656"
     y="644"
     xlink:href="#t"
     id="use2457"
     width="100%"
     height="100%"
     transform="translate(-103.57867,-39.362996)" />
  <use
     x="425.76953"
     y="644"
     xlink:href="#s"
     id="use2459"
     width="100%"
     height="100%"
     transform="translate(-103.57867,-39.362996)" />
  <use
     x="442.4375"
     y="644"
     xlink:href="#g"
     id="use2461"
     width="100%"
     height="100%"
     transform="translate(-103.57867,-39.362996)" />
  <use
     x="459.03125"
     y="644"
     xlink:href="#c"
     id="use2463"
     width="100%"
     height="100%"
     transform="translate(-103.57867,-39.362996)" />
  <use
     x="478.26953"
     y="644"
     xlink:href="#a"
     id="use2465"
     width="100%"
     height="100%"
     transform="translate(-103.57867,-39.362996)" />
  <use
     x="491.65625"
     y="644"
     xlink:href="#a"
     id="use2467"
     width="100%"
     height="100%"
     transform="translate(-103.57867,-39.362996)" />
  <use
     x="70"
     y="672"
     xlink:href="#r"
     id="use2469"
     width="100%"
     height="100%"
     transform="translate(-103.57867,-39.362996)" />
  <use
     x="82.183594"
     y="672"
     xlink:href="#d"
     id="use2471"
     width="100%"
     height="100%"
     transform="translate(-103.57867,-39.362996)" />
  <use
     x="95.992188"
     y="672"
     xlink:href="#c"
     id="use2473"
     width="100%"
     height="100%"
     transform="translate(-103.57867,-39.362996)" />
  <use
     x="115.22656"
     y="672"
     xlink:href="#q"
     id="use2475"
     width="100%"
     height="100%"
     transform="translate(-103.57867,-39.362996)" />
  <use
     x="154.15234"
     y="672"
     xlink:href="#a"
     id="use2477"
     width="100%"
     height="100%"
     transform="translate(-103.57867,-39.362996)" />
  <use
     x="167.53516"
     y="672"
     xlink:href="#p"
     id="use2479"
     width="100%"
     height="100%"
     transform="translate(-103.57867,-39.362996)" />
  <use
     x="187.46875"
     y="672"
     xlink:href="#b"
     id="use2481"
     width="100%"
     height="100%"
     transform="translate(-103.57867,-39.362996)" />
  <use
     x="216.20703"
     y="672"
     xlink:href="#o"
     id="use2483"
     width="100%"
     height="100%"
     transform="translate(-103.57867,-39.362996)" />
  <use
     x="239.64062"
     y="672"
     xlink:href="#c"
     id="use2485"
     width="100%"
     height="100%"
     transform="translate(-103.57867,-39.362996)" />
  <use
     x="258.87891"
     y="672"
     xlink:href="#n"
     id="use2487"
     width="100%"
     height="100%"
     transform="translate(-103.57867,-39.362996)" />
  <use
     x="278.8125"
     y="672"
     xlink:href="#e"
     id="use2489"
     width="100%"
     height="100%"
     transform="translate(-103.57867,-39.362996)" />
  <use
     x="308.49219"
     y="672"
     xlink:href="#m"
     id="use2491"
     width="100%"
     height="100%"
     transform="translate(-103.57867,-39.362996)" />
  <use
     x="329.01562"
     y="672"
     xlink:href="#d"
     id="use2493"
     width="100%"
     height="100%"
     transform="translate(-103.57867,-39.362996)" />
  <use
     x="342.82031"
     y="672"
     xlink:href="#c"
     id="use2495"
     width="100%"
     height="100%"
     transform="translate(-103.57867,-39.362996)" />
  <use
     x="362.05859"
     y="672"
     xlink:href="#l"
     id="use2497"
     width="100%"
     height="100%"
     transform="translate(-103.57867,-39.362996)" />
  <use
     x="371.65625"
     y="672"
     xlink:href="#b"
     id="use2499"
     width="100%"
     height="100%"
     transform="translate(-103.57867,-39.362996)" />
  <use
     x="390.64844"
     y="672"
     xlink:href="#g"
     id="use2501"
     width="100%"
     height="100%"
     transform="translate(-103.57867,-39.362996)" />
  <use
     x="407.24219"
     y="672"
     xlink:href="#a"
     id="use2503"
     width="100%"
     height="100%"
     transform="translate(-103.57867,-39.362996)" />
  <path
     d="m 343.43429,112.03795 c 8.67333,5.85789 15.88069,13.72379 21.04131,22.96378 7.28713,11.76037 11.12733,22.03691 11.2071,30.54931 0.0793,8.50954 -5.13326,15.41481 -15.67287,19.58965 v -0.003 c -9.15126,4.3542 -19.86923,3.42174 -28.17589,-2.44734 -8.99801,-7.26941 -16.10531,-16.70008 -20.68863,-27.45833 -5.64169,-12.04353 -7.83644,-21.35664 -6.93461,-28.70132 0.90204,-7.34469 5.99429,-12.3231 15.16485,-15.69508 l -0.003,-0.003 c 7.77346,-3.41894 16.65181,-2.97651 24.0621,1.20406 z m -3.91968,56.19836 v 0.003 c 1.56624,1.9629 3.69828,3.36575 6.08994,4.01541 2.39172,0.64964 4.92284,0.50683 7.23255,-0.40321 2.17033,-0.59363 3.98799,-2.1085 4.99114,-4.1666 1.00588,-2.0581 1.0988,-4.45785 0.25967,-6.59151 -2.05278,-7.17407 -5.0868,-14.01195 -9.012,-20.31221 -3.35115,-6.36469 -7.56074,-12.217 -12.49953,-17.38322 -1.49242,-1.57088 -3.40853,-2.64892 -5.50503,-3.09135 -2.0965,-0.44243 -4.27229,-0.23241 -6.25123,0.60483 -3.88415,0.93805 -6.34689,4.861 -5.56514,8.87082 1.47331,6.82949 3.9989,13.37326 7.48656,19.38821 3.33471,6.92756 7.59363,13.34243 12.65557,19.06922 z"
     id="path5024"
     style="stroke-width:0.75" />
  <path
     d="m 343.43429,112.03795 c 8.67333,5.85789 15.88069,13.72379 21.04131,22.96378 7.28713,11.76037 11.12733,22.03691 11.2071,30.54931 0.0793,8.50954 -5.13326,15.41481 -15.67287,19.58965 v -0.003 c -9.15126,4.3542 -19.86923,3.42174 -28.17589,-2.44734 -8.99801,-7.26941 -16.10531,-16.70008 -20.68863,-27.45833 -5.64169,-12.04353 -7.83644,-21.35664 -6.93461,-28.70132 0.90204,-7.34469 5.99429,-12.3231 15.16485,-15.69508 l -0.003,-0.003 c 7.77346,-3.41894 16.65181,-2.97651 24.0621,1.20406 z m -3.91968,56.19836 v 0.003 c 1.56624,1.9629 3.69828,3.36575 6.08994,4.01541 2.39172,0.64964 4.92284,0.50683 7.23255,-0.40321 2.17033,-0.59363 3.98799,-2.1085 4.99114,-4.1666 1.00588,-2.0581 1.0988,-4.45785 0.25967,-6.59151 -2.05278,-7.17407 -5.0868,-14.01195 -9.012,-20.31221 -3.35115,-6.36469 -7.56074,-12.217 -12.49953,-17.38322 -1.49242,-1.57088 -3.40853,-2.64892 -5.50503,-3.09135 -2.0965,-0.44243 -4.27229,-0.23241 -6.25123,0.60483 -3.88415,0.93805 -6.34689,4.861 -5.56514,8.87082 1.47331,6.82949 3.9989,13.37326 7.48656,19.38821 3.33471,6.92756 7.59363,13.34243 12.65557,19.06922 z"
     id="path5112"
     style="stroke-width:0.75" />
</svg>
