<svg width="583" height="583" viewBox="0 0 583 583" fill="none" xmlns="http://www.w3.org/2000/svg">
<circle cx="291.5" cy="291.5" r="278.5" stroke="black" stroke-width="26"/>
<path d="M568 291.5C568 447.849 452.543 573 312 573C171.457 573 56 447.849 56 291.5C56 135.151 171.457 10 312 10C452.543 10 568 135.151 568 291.5Z" stroke="black" stroke-width="20"/>
<line x1="113" y1="112.5" x2="72" y2="112.5" stroke="black" stroke-width="15"/>
<line x1="87" y1="149.5" x2="46" y2="149.5" stroke="black" stroke-width="15"/>
<line x1="58" y1="231.5" x2="17" y2="231.5" stroke="black" stroke-width="15"/>
<line x1="52" y1="276.5" x2="11" y2="276.5" stroke="black" stroke-width="15"/>
<line x1="52" y1="316.5" x2="11" y2="316.5" stroke="black" stroke-width="15"/>
<line x1="60" y1="362.5" x2="19" y2="362.5" stroke="black" stroke-width="15"/>
<line x1="74" y1="403.5" x2="33" y2="403.5" stroke="black" stroke-width="15"/>
<line x1="94" y1="444.5" x2="53" y2="444.5" stroke="black" stroke-width="15"/>
<line x1="122" y1="481.5" x2="81" y2="481.5" stroke="black" stroke-width="15"/>
<line x1="113" y1="112.5" x2="72" y2="112.5" stroke="black" stroke-width="15"/>
<line x1="70" y1="190.5" x2="29" y2="190.5" stroke="black" stroke-width="15"/>
<path d="M383.35 339.049V373H238.435V344.34C242.06 336.404 246.666 328.663 252.25 321.119C257.835 313.476 264.498 305.833 272.239 298.191C280.077 290.45 288.994 282.514 298.988 274.381C306.238 268.502 312.411 263.162 317.506 258.361C322.601 253.462 326.57 249.102 329.411 245.281C332.351 241.459 334.555 237.687 336.025 233.964C337.495 230.143 338.229 226.419 338.229 222.794C338.229 213.78 335.927 207.019 331.322 202.512C326.815 198.005 320.054 195.751 311.04 195.751C302.221 195.751 295.46 198.152 290.757 202.953C286.152 207.656 283.164 214.759 281.792 224.264L240.199 221.912C242.55 202.708 249.703 188.059 261.657 177.967C273.708 167.875 290.071 162.829 310.746 162.829C333.085 162.829 350.232 167.924 362.186 178.114C374.14 188.304 380.117 202.61 380.117 221.03C380.117 231.416 377.961 240.725 373.65 248.955C369.339 257.186 363.852 264.779 357.189 271.736C351.702 277.713 345.48 283.396 338.523 288.785C331.665 294.174 325.002 299.416 318.535 304.511C311.676 309.998 305.406 315.534 299.723 321.119C294.138 326.704 289.973 332.681 287.23 339.049H383.35Z" fill="black"/>
</svg>
